<svg xmlns="http://www.w3.org/2000/svg" xmlns:xlink="http://www.w3.org/1999/xlink" width="117.952" height="137.916" viewBox="0 0 117.952 137.916">
  <defs>
    <linearGradient id="linear-gradient" x1="-0.581" y1="0.5" x2="1" y2="0.5" gradientUnits="objectBoundingBox">
      <stop offset="0" stop-color="#ffdd10"/>
      <stop offset="1" stop-color="#ffdd10" stop-opacity="0.549"/>
    </linearGradient>
  </defs>
  <g id="voice-beginner" transform="translate(-108 -1284)">
    <g id="Group_151" data-name="Group 151" transform="translate(211.452 1103.791)">
      <path id="Path_195" data-name="Path 195" d="M-18.905,233.63a27.811,27.811,0,0,0,3.384-13.338,27.937,27.937,0,0,0-27.937-27.938A27.938,27.938,0,0,0-71.4,220.292a27.8,27.8,0,0,0,3.686,13.862,4.058,4.058,0,0,0-1.457,3.1,4.1,4.1,0,0,0,4.084,4.083h3.258c.13.114.259.228.391.339.32,9.018,1.757,48.377,2.934,62.318A12.394,12.394,0,0,0-49,315.323c.04,1.55,2.6,2.8,5.746,2.8s5.7-1.249,5.746-2.8A12.038,12.038,0,0,0-28,303.99c.546-13.559,2.516-54.232,2.925-62.657h4.325a4.1,4.1,0,0,0,4.083-4.083A4.082,4.082,0,0,0-18.905,233.63Zm-3.824-3.88H-64.188a2.548,2.548,0,0,0-.52.054,23.364,23.364,0,0,1-1.193-3.3h8.87a1.661,1.661,0,0,0,1.656-1.656,1.661,1.661,0,0,0-1.656-1.656h-9.531a23.269,23.269,0,0,1-.188-2.9q0-.62.033-1.229h9.686a1.661,1.661,0,0,0,1.656-1.657,1.661,1.661,0,0,0-1.656-1.656H-66.3a23.068,23.068,0,0,1,1.227-4.125h8.046a1.661,1.661,0,0,0,1.656-1.656,1.661,1.661,0,0,0-1.656-1.656h-6.4a23.347,23.347,0,0,1,3.158-4.125h3.649a1.257,1.257,0,0,0,1.253-1.253v-.807a1.24,1.24,0,0,0-1.019-1.206A23.182,23.182,0,0,1-43.458,197a23.184,23.184,0,0,1,13.766,4.507,1.083,1.083,0,0,0-.121.48v1.088a1.116,1.116,0,0,0,1.113,1.113h2.06a23.3,23.3,0,0,1,3.158,4.125h-4.836a1.5,1.5,0,0,0-1.495,1.494v.324a1.5,1.5,0,0,0,1.495,1.494h6.479a23.147,23.147,0,0,1,1.226,4.125H-28.2a1.615,1.615,0,0,0-1.61,1.609v.094a1.615,1.615,0,0,0,1.61,1.61h8q.031.61.032,1.229a23.08,23.08,0,0,1-.188,2.9h-7.872a1.59,1.59,0,0,0-1.586,1.585v.142a1.59,1.59,0,0,0,1.586,1.585h7.211a23.484,23.484,0,0,1-1.192,3.3A2.565,2.565,0,0,0-22.729,229.75Z" fill="url(#linear-gradient)"/>
      <path id="Path_196" data-name="Path 196" d="M-79.133,252.754h-8.8l-4.4,7.621,4.4,7.621h8.8l4.4-7.621Z" fill="url(#linear-gradient)"/>
      <path id="Path_197" data-name="Path 197" d="M-90.251,189.379h-8.8l-4.4,7.621,4.4,7.621h8.8l4.4-7.621Z" fill="url(#linear-gradient)"/>
      <path id="Path_198" data-name="Path 198" d="M8.677,180.209h-8.8l-4.4,7.621,4.4,7.621h8.8l4.4-7.621Z" fill="url(#linear-gradient)"/>
      <circle id="Ellipse_17" data-name="Ellipse 17" cx="4.25" cy="4.25" r="4.25" transform="translate(-90.101 217.25)" fill="url(#linear-gradient)"/>
      <circle id="Ellipse_18" data-name="Ellipse 18" cx="3.25" cy="3.25" r="3.25" transform="translate(-66 181.75)" fill="url(#linear-gradient)"/>
      <circle id="Ellipse_19" data-name="Ellipse 19" cx="4.25" cy="4.25" r="4.25" transform="translate(6 221.5)" fill="url(#linear-gradient)"/>
    </g>
    <circle id="Ellipse_20" data-name="Ellipse 20" cx="7.25" cy="7.25" r="7.25" transform="translate(160 1355.125)" fill="#fff"/>
  </g>
</svg>
