<svg xmlns="http://www.w3.org/2000/svg" xmlns:xlink="http://www.w3.org/1999/xlink" width="136.041" height="139.315" viewBox="0 0 136.041 139.315">
  <defs>
    <linearGradient id="linear-gradient" x1="-0.463" y1="0.354" x2="1.366" y2="0.358" gradientUnits="objectBoundingBox">
      <stop offset="0" stop-color="#ffdd10"/>
      <stop offset="1" stop-color="#ffdd10" stop-opacity="0.549"/>
    </linearGradient>
  </defs>
  <g id="voice-expert" transform="translate(-614.983 -179.018)">
    <g id="Group_154" data-name="Group 154">
      <path id="Path_204" data-name="Path 204" d="M722.352,239.333a4.333,4.333,0,0,0-8.667,0s.028,4.38.042,9.5H707V220a22.065,22.065,0,0,0-22-22h-1.667a22.065,22.065,0,0,0-22,22v28.833h-7.875c.014-5.12.042-9.5.042-9.5a4.333,4.333,0,0,0-8.667,0s-.145,17.627,0,23.5c.174,7,3.667,31.5,33.5,38V313.25a5.083,5.083,0,0,0,10.167,0V300.833h.352c29.833-6.5,33.327-31,33.5-38C722.5,256.96,722.352,239.333,722.352,239.333Zm-38.685-31.5h0a15.187,15.187,0,0,1,13.1,7.584h-5.229a3.291,3.291,0,1,0,0,6.583h5.5a3.253,3.253,0,0,0,1.715-.5c.049.493.076.993.076,1.5v4.873a3.256,3.256,0,0,0-1.791-.54h-5.5a3.292,3.292,0,0,0,0,6.584h5.5a3.256,3.256,0,0,0,1.791-.54v6.412a3.264,3.264,0,0,0-1.791-.539h-5.5a3.291,3.291,0,1,0,0,6.583h5.5a3.264,3.264,0,0,0,1.791-.539v5.912a3.264,3.264,0,0,0-1.791-.539h-5.5a3.291,3.291,0,1,0,0,6.583h5.5a3.263,3.263,0,0,0,1.791-.539v2.956a15.11,15.11,0,0,1-.272,2.807,3.244,3.244,0,0,0-1.519-.391h-5.5a3.292,3.292,0,0,0,0,6.584h4.291a15.156,15.156,0,0,1-12.166,6.166h0a15.156,15.156,0,0,1-12.167-6.166h3.958a3.292,3.292,0,0,0,0-6.584h-5.5a3.272,3.272,0,0,0-1.209.238,15.086,15.086,0,0,1-.249-2.654v-2.775a3.235,3.235,0,0,0,1.458.358h5.5a3.291,3.291,0,1,0,0-6.583h-5.5a3.247,3.247,0,0,0-1.458.357v-5.549a3.235,3.235,0,0,0,1.458.358h5.5a3.291,3.291,0,1,0,0-6.583h-5.5a3.235,3.235,0,0,0-1.458.358v-6.049a3.248,3.248,0,0,0,1.458.358h5.5a3.292,3.292,0,0,0,0-6.584h-5.5a3.248,3.248,0,0,0-1.458.358V223c0-.446.029-.885.067-1.321a3.254,3.254,0,0,0,1.391.321h5.5a3.291,3.291,0,1,0,0-6.583h-4.9A15.185,15.185,0,0,1,683.667,207.833Zm30.018,55c-.5,26.334-29.916,28.667-29.916,28.667l-4.058-.582c-7.921-1.634-25.822-7.59-26.211-28.085-.021-1.132-.035-2.7-.042-4.5h7.875V261.5a22.065,22.065,0,0,0,22,22H685a22.065,22.065,0,0,0,22-22v-3.167h6.727C713.72,260.129,713.707,261.7,713.685,262.833Z" fill="url(#linear-gradient)"/>
      <circle id="Ellipse_24" data-name="Ellipse 24" cx="2.75" cy="2.75" r="2.75" transform="translate(680.843 257.25)" fill="url(#linear-gradient)"/>
      <circle id="Ellipse_25" data-name="Ellipse 25" cx="2.75" cy="2.75" r="2.75" transform="translate(680.843 245.833)" fill="url(#linear-gradient)"/>
      <circle id="Ellipse_26" data-name="Ellipse 26" cx="2.75" cy="2.75" r="2.75" transform="translate(680.843 233.75)" fill="url(#linear-gradient)"/>
      <circle id="Ellipse_27" data-name="Ellipse 27" cx="2.75" cy="2.75" r="2.75" transform="translate(680.843 221.174)" fill="url(#linear-gradient)"/>
    </g>
    <path id="Path_205" data-name="Path 205" d="M628.509,264.941h-9.017l-4.509,7.809,4.509,7.809h9.017l4.509-7.809Z" fill="url(#linear-gradient)"/>
    <path id="Path_206" data-name="Path 206" d="M746.637,265.151h-8.774l-4.387,7.6,4.387,7.6h8.774l4.387-7.6Z" fill="url(#linear-gradient)"/>
    <path id="Path_207" data-name="Path 207" d="M728.281,179.018h-8.062L716.188,186l4.031,6.982h8.062L732.312,186Z" fill="url(#linear-gradient)"/>
    <path id="Path_208" data-name="Path 208" d="M641.792,191.865h-7.084L631.166,198l3.542,6.135h7.084L645.334,198Z" fill="url(#linear-gradient)"/>
    <circle id="Ellipse_28" data-name="Ellipse 28" cx="3.17" cy="3.17" r="3.17" transform="translate(642.163 218.004)" fill="url(#linear-gradient)"/>
    <circle id="Ellipse_29" data-name="Ellipse 29" cx="2.792" cy="2.792" r="2.792" transform="translate(628.374 247.458)" fill="url(#linear-gradient)"/>
    <circle id="Ellipse_30" data-name="Ellipse 30" cx="2.724" cy="2.724" r="2.724" transform="translate(662.776 183.276)" fill="url(#linear-gradient)"/>
    <circle id="Ellipse_31" data-name="Ellipse 31" cx="3" cy="3" r="3" transform="translate(734.25 228)" fill="url(#linear-gradient)"/>
  </g>
</svg>
